# This file uses centimeters as units for non-parametric coordinates.

mtllib test_min.mtl
g default
v 3.205990 1.425000 -0.000005
v 3.205990 1.363890 0.274995
v 3.578370 1.425210 0.262341
v 3.564790 1.476390 -0.000005
v 3.205990 1.211110 0.439996
v 3.612320 1.297250 0.419748
v 3.205990 1.012500 0.494996
v 3.656450 1.130900 0.472218
v 3.205990 0.813891 0.439997
v 3.700590 0.964560 0.419749
v 3.205990 0.661112 0.274998
v 3.734540 0.836601 0.262343
v 3.205990 0.600000 -0.000002
v 3.748120 0.785417 -0.000003
v 3.205990 0.661110 -0.275002
v 3.734540 0.836599 -0.262349
v 3.205990 0.813887 -0.440003
v 3.700590 0.964556 -0.419757
v 3.205990 1.012500 -0.495004
v 3.656450 1.130900 -0.472226
v 3.205990 1.211110 -0.440004
v 3.612320 1.297250 -0.419758
v 3.205990 1.363890 -0.275005
v 3.578370 1.425210 -0.262351
vn -0.149940 0.988695 0.000000
vn -0.137032 0.872426 0.469144
vn -0.297772 0.840366 0.452899
vn -0.297772 0.840366 0.452899
vn -0.350508 0.936560 0.000000
vn -0.149940 0.988695 0.000000
vn -0.066715 0.491457 0.868343
vn -0.117894 0.503163 0.856112
vn -0.137032 0.872426 0.469144
vn -0.297772 0.840366 0.452899
vn -0.137032 0.872426 0.469144
vn -0.117894 0.503163 0.856112
vn 0.062717 -0.043459 0.997085
vn 0.135932 -0.002472 0.990715
vn -0.066715 0.491457 0.868343
vn -0.117894 0.503163 0.856112
vn -0.066715 0.491457 0.868343
vn 0.135932 -0.002472 0.990715
vn 0.202588 -0.542910 0.814989
vn 0.360100 -0.479248 0.800405
vn 0.062717 -0.043459 0.997085
vn 0.135932 -0.002472 0.990715
vn 0.062717 -0.043459 0.997085
vn 0.360100 -0.479248 0.800405
vn 0.202588 -0.542910 0.814989
vn 0.294117 -0.855067 0.427030
vn 0.488430 -0.768719 0.412925
vn 0.488430 -0.768719 0.412925
vn 0.360100 -0.479248 0.800405
vn 0.202588 -0.542910 0.814989
vn 0.294117 -0.855067 0.427030
vn 0.320784 -0.947152 0.000000
vn 0.488430 -0.768719 0.412925
vn 0.525115 -0.851031 0.000000
vn 0.488430 -0.768719 0.412925
vn 0.320784 -0.947152 0.000000
vn 0.320784 -0.947152 0.000000
vn 0.294117 -0.855067 -0.427030
vn 0.488430 -0.768719 -0.412925
vn 0.488430 -0.768719 -0.412925
vn 0.525115 -0.851031 0.000000
vn 0.320784 -0.947152 0.000000
vn 0.294117 -0.855067 -0.427030
vn 0.202588 -0.542910 -0.814989
vn 0.488430 -0.768719 -0.412925
vn 0.360100 -0.479248 -0.800405
vn 0.488430 -0.768719 -0.412925
vn 0.202588 -0.542910 -0.814989
vn 0.360100 -0.479248 -0.800405
vn 0.202588 -0.542910 -0.814989
vn 0.062717 -0.043459 -0.997085
vn 0.062717 -0.043459 -0.997085
vn 0.135932 -0.002472 -0.990715
vn 0.360100 -0.479248 -0.800405
vn 0.135932 -0.002472 -0.990715
vn 0.062717 -0.043459 -0.997085
vn -0.066715 0.491457 -0.868343
vn -0.066715 0.491457 -0.868343
vn -0.117894 0.503163 -0.856112
vn 0.135932 -0.002472 -0.990715
vn -0.117894 0.503163 -0.856112
vn -0.066715 0.491457 -0.868343
vn -0.137032 0.872426 -0.469144
vn -0.137032 0.872426 -0.469144
vn -0.297772 0.840366 -0.452899
vn -0.117894 0.503163 -0.856112
vn -0.137032 0.872426 -0.469144
vn -0.149940 0.988695 0.000000
vn -0.297772 0.840366 -0.452899
vn -0.350508 0.936560 0.000000
vn -0.297772 0.840366 -0.452899
vn -0.149940 0.988695 0.000000
s off
g polySurface4 teapot:Mesh
usemtl initialShadingGroup
f 1//1 2//2 3//3
f 3//4 4//5 1//6
f 5//7 6//8 2//9
f 3//10 2//11 6//12
f 7//13 8//14 5//15
f 6//16 5//17 8//18
f 9//19 10//20 7//21
f 8//22 7//23 10//24
f 9//25 11//26 12//27
f 12//28 10//29 9//30
f 11//31 13//32 12//33
f 14//34 12//35 13//36
f 13//37 15//38 16//39
f 16//40 14//41 13//42
f 15//43 17//44 16//45
f 18//46 16//47 17//48
f 18//49 17//50 19//51
f 19//52 20//53 18//54
f 20//55 19//56 21//57
f 21//58 22//59 20//60
f 22//61 21//62 23//63
f 23//64 24//65 22//66
f 23//67 1//68 24//69
f 4//70 24//71 1//72
