# This file uses centimeters as units for non-parametric coordinates.

mtllib test3.mtl
g default
v 3.205990 1.425000 -0.000005
v 3.205990 1.363890 0.274995
v 3.578370 1.425210 0.262341
v 3.564790 1.476390 -0.000005
v 3.205990 1.211110 0.439996
v 3.612320 1.297250 0.419748
v 3.205990 1.211110 -0.440004
v 3.612320 1.297250 -0.419758
v 3.205990 1.363890 -0.275005
v 3.578370 1.425210 -0.262351
vn -0.149940 0.988695 0.000000
vn -0.137032 0.872426 0.469144
vn -0.297772 0.840366 0.452899
vn -0.297772 0.840366 0.452899
vn -0.350508 0.936560 0.000000
vn -0.149940 0.988695 0.000000
vn -0.066715 0.491457 0.868343
vn -0.117894 0.503163 0.856112
vn -0.137032 0.872426 0.469144
vn -0.297772 0.840366 0.452899
vn -0.137032 0.872426 0.469144
vn -0.117894 0.503163 0.856112
vn -0.117894 0.503163 -0.856112
vn -0.066715 0.491457 -0.868343
vn -0.137032 0.872426 -0.469144
vn -0.137032 0.872426 -0.469144
vn -0.297772 0.840366 -0.452899
vn -0.117894 0.503163 -0.856112
vn -0.137032 0.872426 -0.469144
vn -0.149940 0.988695 0.000000
vn -0.297772 0.840366 -0.452899
vn -0.350508 0.936560 0.000000
vn -0.297772 0.840366 -0.452899
vn -0.149940 0.988695 0.000000
s off
g polySurface4 teapot:Mesh
usemtl initialShadingGroup
f 1//1 2//2 3//3
f 3//4 4//5 1//6
f 5//7 6//8 2//9
f 3//10 2//11 6//12
f 8//13 7//14 9//15
f 9//16 10//17 8//18
f 9//19 1//20 10//21
f 4//22 10//23 1//24
